<?xml version="1.0" encoding="UTF-8" standalone="no"?>
<!DOCTYPE svg PUBLIC "-//W3C//DTD SVG 1.1//EN" "http://www.w3.org/Graphics/SVG/1.1/DTD/svg11.dtd">
<svg width="100%" height="100%" viewBox="0 0 2372 699" version="1.1" xmlns="http://www.w3.org/2000/svg" xmlns:xlink="http://www.w3.org/1999/xlink" xml:space="preserve" xmlns:serif="http://www.serif.com/" style="fill-rule:evenodd;clip-rule:evenodd;stroke-linejoin:round;stroke-miterlimit:2;">
    <g transform="matrix(4.16667,0,0,4.16667,-6.16186,-4.98773)">
        <g transform="matrix(0.875478,0,0,1.0981,-0.814307,-0.764045)">
            <g transform="matrix(0.707646,0,0,0.56418,-233.176,-136.965)">
                <path d="M451,291.854L451,291.872L352.239,516.591L333.211,516.591L409.007,245.933L444.427,245.933L454.889,282.311L451,291.854Z" style="fill:rgb(64,170,190);"/>
            </g>
        </g>
        <g transform="matrix(0.875478,0,0,1.0981,-0.814307,-0.764045)">
            <g transform="matrix(1.25646,0,0,0.91066,101.461,38.8634)">
                <text x="0px" y="47.168px" style="font-family:'Aller';font-size:64px;fill:rgb(64,170,190);">C<tspan x="36.352px 70.144px 100.032px 115.264px 135.872px 168.256px 180.224px 214.528px 246.912px 258.88px 300.416px 332.8px 358.72px 373.952px 406.144px " y="47.168px 47.168px 47.168px 47.168px 47.168px 47.168px 47.168px 47.168px 47.168px 47.168px 47.168px 47.168px 47.168px 47.168px 47.168px ">haire de Design</tspan></text>
            </g>
        </g>
        <g transform="matrix(0.875478,0,0,1.0981,-0.814307,-0.764045)">
            <g transform="matrix(1.25646,0,0,0.91066,70.2012,94.4181)">
                <text x="0px" y="47.168px" style="font-family:'Aller';font-size:64px;fill:rgb(64,170,190);">J<tspan x="22.144px 54.528px 84.416px 118.208px 130.176px 163.2px 183.808px 217.536px 251.072px 281.856px " y="47.168px 47.168px 47.168px 47.168px 47.168px 47.168px 47.168px 47.168px 47.168px 47.168px ">ean Prouvé</tspan></text>
            </g>
        </g>
    </g>
</svg>
