<?xml version="1.0" encoding="UTF-8" standalone="no"?>
<!DOCTYPE svg PUBLIC "-//W3C//DTD SVG 1.1//EN" "http://www.w3.org/Graphics/SVG/1.1/DTD/svg11.dtd">
<svg width="100%" height="100%" viewBox="0 0 391 391" version="1.1" xmlns="http://www.w3.org/2000/svg" xmlns:xlink="http://www.w3.org/1999/xlink" xml:space="preserve" xmlns:serif="http://www.serif.com/" style="fill-rule:evenodd;clip-rule:evenodd;">
    <g transform="matrix(1,0,0,1,22.1557,-2)">
        <path d="M195.81,24.13L310.22,90.67C323.751,98.539 332.102,113.057 332.1,128.71L332.1,265.14C332.098,282.449 322.733,298.468 307.65,306.96L194.1,370.9C179.049,379.373 160.59,379.285 145.62,370.67L41.05,310.48C24.64,301.034 14.491,283.485 14.49,264.55L14.49,135.08C14.488,116.031 24.383,98.289 40.59,88.28L143.39,24.82C159.376,14.953 179.57,14.688 195.81,24.13Z" style="fill:white;stroke:rgb(161,161,161);stroke-width:27px;"/>
    </g>
    <g transform="matrix(1,0,0,1,22.1557,-2)">
        <path d="M93.91,299.92L93.91,92.7L137.26,92.7L137.26,168.18L209.18,168.18L209.18,92.7L252.66,92.7L252.66,299.92L209.18,299.92L209.18,209.31L137.26,209.31L137.26,299.92L93.91,299.92Z" style="fill:rgb(112,112,112);"/>
    </g>
</svg>
