<svg height="{{ .hei }}rem" viewBox="0 0 687 215"
    style="fill-rule:evenodd;clip-rule:evenodd;stroke-linejoin:round;stroke-miterlimit:2;">
    <g transform="matrix(1,0,0,1,-7.34737,-4.17438)">
        <g transform="matrix(0.914286,0,0,0.831461,-15.5429,-111.416)">
            <g id="path5883-4" transform="matrix(1.09375,0,0,1.2027,17,134)">
                <path
                    d="M141.91,175.405L150.177,193.077L144.285,195.918L146.603,201.887L146.985,203.351L147.356,211.693L139.918,214.17L135.435,207.198L134.904,205.783L133.356,199.558L122.694,201.643L123.491,208.014L123.505,209.531L121.841,217.704L114.036,218.207L111.385,210.312L111.214,208.806L111.225,202.382L100.392,201.684L99.618,208.059L99.264,209.531L95.669,217.023L87.987,215.521L87.335,207.198L87.535,205.696L89.104,199.477L78.781,196.039L76.484,202.016L75.785,203.351L70.484,209.692L63.408,206.279L64.796,198.052L65.354,196.647L68.383,191.024L59.219,185.062L55.544,190.266L54.542,191.382L47.87,196.172L41.843,191.062L45.184,183.447L46.065,182.229L50.364,177.554L42.934,169.445L38.112,173.548L36.871,174.373L29.246,177.312L24.649,170.827L29.732,164.303L30.881,163.348L36.179,159.915L30.95,150.166L25.284,152.912L23.881,153.395L15.783,154.298L12.904,146.845L19.411,141.821L20.756,141.189L26.72,139.215L24.02,128.439L17.866,129.654L16.391,129.764L8.327,128.575L7.347,120.622L14.868,117.415L16.324,117.145L22.58,116.754L22.58,105.628L16.324,105.236L14.868,104.967L7.347,101.76L8.327,93.807L16.391,92.617L17.866,92.728L24.02,93.943L26.72,83.167L20.756,81.193L19.411,80.561L12.904,75.537L15.783,68.084L23.881,68.987L25.284,69.47L30.95,72.215L36.179,62.466L30.881,59.034L29.732,58.079L24.649,51.554L29.246,45.069L36.871,48.009L38.112,48.834L42.934,52.937L50.364,44.827L46.065,40.152L45.184,38.935L41.843,31.319L47.87,26.21L54.542,31L55.544,32.116L59.219,37.319L68.383,31.358L65.354,25.734L64.796,24.33L63.408,16.103L70.484,12.689L75.785,19.03L76.484,20.366L78.781,26.343L89.104,22.905L87.535,16.686L87.335,15.184L87.987,6.861L95.669,5.359L99.264,12.851L99.618,14.323L100.392,20.698L111.225,19.999L111.214,13.576L111.385,12.069L114.036,4.174L121.841,4.678L123.505,12.851L123.491,14.367L122.694,20.739L133.356,22.824L134.904,16.599L135.435,15.184L139.918,8.212L147.356,10.689L146.985,19.03L146.603,20.495L144.285,26.464L154.107,31.2L157.116,25.566L157.974,24.33L164.008,18.721L170.611,23.016L168.228,31L167.502,32.322L163.809,37.511L172.173,44.603L176.455,39.912L177.585,38.935L184.791,35.039L190.144,40.882L185.899,48.009L184.876,49.103L180.04,53.189L186.42,62.19L191.705,58.738L193.037,58.079L200.962,56.142L204.729,63.167L198.888,68.987L197.632,69.787L191.956,72.511L195.952,82.856L201.909,80.859L203.359,80.561L211.504,80.705L213.449,88.469L206.379,92.617L204.968,93.072L198.809,94.264L200.17,105.302L206.424,104.887L207.901,104.967L215.756,107.183L215.756,113.139L182.54,113.321C182.562,112.615 182.572,111.904 182.572,111.191C182.572,71.993 150.749,40.17 111.551,40.17C72.354,40.17 40.531,71.993 40.531,111.191C40.531,150.388 72.354,182.212 111.551,182.212C122.409,182.212 132.701,179.77 141.91,175.405Z"
                    style="fill:{{ .colo }};fill-rule:nonzero;" />
            </g>
        </g>
        <g transform="matrix(0.914286,0,0,0.831461,-15.5429,-111.416)">
            <g transform="matrix(1.63292,0,0,1.79558,-141.503,-618.83)">
                <g transform="matrix(42.8679,0,0,42.8679,209.691,538.294)">
                    <path
                        d="M0.385,-0.323C0.385,-0.36 0.375,-0.389 0.355,-0.41C0.335,-0.43 0.307,-0.44 0.27,-0.44C0.235,-0.44 0.206,-0.432 0.182,-0.418C0.158,-0.403 0.14,-0.378 0.129,-0.345L0.064,-0.385C0.077,-0.422 0.102,-0.452 0.138,-0.476C0.174,-0.499 0.219,-0.51 0.272,-0.51C0.308,-0.51 0.341,-0.504 0.37,-0.492C0.399,-0.479 0.423,-0.46 0.44,-0.436C0.456,-0.411 0.465,-0.378 0.465,-0.339L0.465,-0.097C0.465,-0.073 0.478,-0.061 0.503,-0.061C0.516,-0.061 0.528,-0.063 0.54,-0.066L0.536,-0.003C0.523,0.004 0.505,0.007 0.484,0.007C0.465,0.007 0.447,0.003 0.432,-0.004C0.417,-0.011 0.405,-0.023 0.396,-0.038C0.387,-0.053 0.383,-0.071 0.383,-0.094L0.383,-0.104L0.403,-0.101C0.395,-0.075 0.381,-0.054 0.362,-0.038C0.343,-0.021 0.321,-0.009 0.297,-0.002C0.273,0.006 0.249,0.01 0.226,0.01C0.197,0.01 0.169,0.005 0.144,-0.005C0.119,-0.015 0.098,-0.03 0.084,-0.051C0.069,-0.071 0.061,-0.096 0.061,-0.126C0.061,-0.163 0.074,-0.194 0.099,-0.219C0.124,-0.243 0.158,-0.259 0.203,-0.268L0.401,-0.307L0.401,-0.241L0.24,-0.208C0.207,-0.201 0.183,-0.192 0.167,-0.18C0.151,-0.168 0.143,-0.151 0.143,-0.13C0.143,-0.109 0.151,-0.093 0.168,-0.08C0.184,-0.067 0.207,-0.06 0.237,-0.06C0.256,-0.06 0.275,-0.063 0.293,-0.068C0.31,-0.073 0.326,-0.08 0.34,-0.091C0.354,-0.101 0.365,-0.114 0.373,-0.13C0.381,-0.145 0.385,-0.164 0.385,-0.185L0.385,-0.323Z"
                        style="fill:{{ .colo }};fill-rule:nonzero;" />
                </g>
                <g transform="matrix(42.8679,0,0,42.8679,233.097,538.294)">
                    <path
                        d="M0.211,-0.642L0.211,-0.138C0.211,-0.113 0.218,-0.095 0.232,-0.083C0.246,-0.071 0.264,-0.065 0.286,-0.065C0.305,-0.065 0.322,-0.068 0.336,-0.075C0.35,-0.082 0.363,-0.091 0.374,-0.102L0.402,-0.035C0.387,-0.021 0.369,-0.01 0.348,-0.002C0.327,0.006 0.302,0.01 0.275,0.01C0.25,0.01 0.226,0.006 0.204,-0.004C0.182,-0.013 0.165,-0.027 0.152,-0.047C0.138,-0.066 0.132,-0.092 0.131,-0.124L0.131,-0.62L0.211,-0.642ZM0.393,-0.5L0.393,-0.431L0.031,-0.431L0.031,-0.5L0.393,-0.5Z"
                        style="fill:{{ .colo }};fill-rule:nonzero;" />
                </g>
                <g transform="matrix(42.8679,0,0,42.8679,251.058,538.294)">
                    <path
                        d="M0.302,0.01C0.255,0.01 0.213,-0 0.176,-0.021C0.138,-0.042 0.11,-0.072 0.089,-0.111C0.068,-0.15 0.058,-0.196 0.058,-0.25C0.058,-0.304 0.068,-0.351 0.089,-0.39C0.11,-0.429 0.138,-0.458 0.174,-0.479C0.21,-0.5 0.251,-0.51 0.297,-0.51C0.344,-0.51 0.384,-0.5 0.417,-0.48C0.45,-0.46 0.475,-0.433 0.492,-0.399C0.509,-0.364 0.518,-0.326 0.518,-0.283C0.518,-0.272 0.518,-0.261 0.517,-0.252C0.516,-0.243 0.515,-0.234 0.514,-0.227L0.11,-0.227L0.11,-0.298L0.479,-0.298L0.438,-0.29C0.438,-0.338 0.425,-0.375 0.399,-0.401C0.372,-0.427 0.338,-0.44 0.295,-0.44C0.262,-0.44 0.234,-0.432 0.211,-0.418C0.187,-0.403 0.169,-0.381 0.156,-0.353C0.142,-0.324 0.136,-0.29 0.136,-0.25C0.136,-0.211 0.143,-0.177 0.156,-0.148C0.169,-0.119 0.188,-0.097 0.213,-0.083C0.237,-0.068 0.266,-0.06 0.3,-0.06C0.337,-0.06 0.367,-0.067 0.39,-0.081C0.413,-0.095 0.431,-0.114 0.445,-0.138L0.508,-0.101C0.495,-0.078 0.479,-0.059 0.46,-0.042C0.44,-0.025 0.417,-0.013 0.391,-0.004C0.364,0.006 0.335,0.01 0.302,0.01Z"
                        style="fill:{{ .colo }};fill-rule:nonzero;" />
                </g>
                <g transform="matrix(42.8679,0,0,42.8679,275.793,538.294)">
                    <path
                        d="M0.169,-0.73L0.169,-0.127C0.169,-0.102 0.174,-0.084 0.183,-0.075C0.192,-0.065 0.207,-0.06 0.228,-0.06C0.241,-0.06 0.252,-0.061 0.261,-0.063C0.27,-0.065 0.281,-0.069 0.296,-0.074L0.283,-0.004C0.272,0.001 0.261,0.004 0.248,0.007C0.235,0.009 0.222,0.01 0.209,0.01C0.168,0.01 0.138,-0.001 0.119,-0.023C0.099,-0.045 0.089,-0.079 0.089,-0.124L0.089,-0.73L0.169,-0.73Z"
                        style="fill:{{ .colo }};fill-rule:nonzero;" />
                </g>
                <g transform="matrix(42.8679,0,0,42.8679,288.911,538.294)">
                    <path
                        d="M0.133,-0.596C0.115,-0.596 0.1,-0.602 0.09,-0.613C0.079,-0.624 0.073,-0.638 0.073,-0.656C0.073,-0.674 0.079,-0.689 0.09,-0.7C0.1,-0.711 0.115,-0.716 0.133,-0.716C0.151,-0.716 0.166,-0.711 0.177,-0.7C0.188,-0.689 0.193,-0.674 0.193,-0.656C0.193,-0.638 0.188,-0.624 0.177,-0.613C0.166,-0.602 0.151,-0.596 0.133,-0.596ZM0.173,-0.5L0.173,-0L0.093,-0L0.093,-0.5L0.173,-0.5Z"
                        style="fill:{{ .colo }};fill-rule:nonzero;" />
                </g>
                <g transform="matrix(42.8679,0,0,42.8679,300.314,538.294)">
                    <path
                        d="M0.302,0.01C0.255,0.01 0.213,-0 0.176,-0.021C0.138,-0.042 0.11,-0.072 0.089,-0.111C0.068,-0.15 0.058,-0.196 0.058,-0.25C0.058,-0.304 0.068,-0.351 0.089,-0.39C0.11,-0.429 0.138,-0.458 0.174,-0.479C0.21,-0.5 0.251,-0.51 0.297,-0.51C0.344,-0.51 0.384,-0.5 0.417,-0.48C0.45,-0.46 0.475,-0.433 0.492,-0.399C0.509,-0.364 0.518,-0.326 0.518,-0.283C0.518,-0.272 0.518,-0.261 0.517,-0.252C0.516,-0.243 0.515,-0.234 0.514,-0.227L0.11,-0.227L0.11,-0.298L0.479,-0.298L0.438,-0.29C0.438,-0.338 0.425,-0.375 0.399,-0.401C0.372,-0.427 0.338,-0.44 0.295,-0.44C0.262,-0.44 0.234,-0.432 0.211,-0.418C0.187,-0.403 0.169,-0.381 0.156,-0.353C0.142,-0.324 0.136,-0.29 0.136,-0.25C0.136,-0.211 0.143,-0.177 0.156,-0.148C0.169,-0.119 0.188,-0.097 0.213,-0.083C0.237,-0.068 0.266,-0.06 0.3,-0.06C0.337,-0.06 0.367,-0.067 0.39,-0.081C0.413,-0.095 0.431,-0.114 0.445,-0.138L0.508,-0.101C0.495,-0.078 0.479,-0.059 0.46,-0.042C0.44,-0.025 0.417,-0.013 0.391,-0.004C0.364,0.006 0.335,0.01 0.302,0.01Z"
                        stylefill:{{ .colo }};fill-rule:nonzero;" />
                </g>
                <g transform="matrix(42.8679,0,0,42.8679,325.048,538.294)">
                    <path
                        d="M0.093,-0L0.093,-0.5L0.158,-0.5L0.169,-0.418C0.183,-0.449 0.204,-0.472 0.231,-0.487C0.258,-0.502 0.29,-0.51 0.329,-0.51C0.338,-0.51 0.347,-0.509 0.358,-0.508C0.368,-0.507 0.377,-0.504 0.384,-0.5L0.37,-0.427C0.363,-0.43 0.355,-0.432 0.346,-0.433C0.337,-0.434 0.325,-0.435 0.309,-0.435C0.288,-0.435 0.268,-0.429 0.247,-0.417C0.226,-0.405 0.208,-0.387 0.194,-0.363C0.18,-0.338 0.173,-0.307 0.173,-0.27L0.173,-0L0.093,-0Z"
                        style="fill:{{ .colo }};fill-rule:nonzero;" />
                </g>
                <g transform="matrix(42.8679,0,0,42.8679,356.171,538.294)">
                    <path
                        d="M0.093,-0L0.093,-0.5L0.163,-0.5L0.168,-0.422C0.186,-0.453 0.21,-0.475 0.239,-0.489C0.268,-0.503 0.297,-0.51 0.328,-0.51C0.363,-0.51 0.397,-0.502 0.428,-0.486C0.459,-0.47 0.483,-0.445 0.5,-0.412C0.511,-0.435 0.526,-0.453 0.545,-0.468C0.564,-0.482 0.586,-0.493 0.609,-0.5C0.632,-0.507 0.653,-0.51 0.674,-0.51C0.706,-0.51 0.737,-0.503 0.766,-0.49C0.795,-0.477 0.818,-0.456 0.837,-0.428C0.856,-0.4 0.865,-0.364 0.865,-0.32L0.865,-0L0.785,-0L0.785,-0.312C0.785,-0.357 0.774,-0.39 0.751,-0.41C0.728,-0.43 0.7,-0.44 0.667,-0.44C0.641,-0.44 0.617,-0.434 0.594,-0.421C0.571,-0.408 0.553,-0.39 0.54,-0.365C0.526,-0.34 0.519,-0.31 0.519,-0.274L0.519,-0L0.439,-0L0.439,-0.312C0.439,-0.357 0.428,-0.39 0.405,-0.41C0.382,-0.43 0.354,-0.44 0.321,-0.44C0.299,-0.44 0.277,-0.434 0.254,-0.423C0.231,-0.411 0.211,-0.392 0.196,-0.367C0.181,-0.342 0.173,-0.308 0.173,-0.267L0.173,-0L0.093,-0Z"
                        style="fill:{{ .colo }};fill-rule:nonzero;" />
                </g>
                <g transform="matrix(42.8679,0,0,42.8679,397.024,538.294)">
                    <path
                        d="M0.274,0.01C0.242,0.01 0.212,0.004 0.184,-0.008C0.155,-0.02 0.132,-0.04 0.115,-0.067C0.097,-0.093 0.088,-0.129 0.088,-0.172L0.088,-0.5L0.168,-0.5L0.168,-0.193C0.168,-0.142 0.179,-0.108 0.201,-0.089C0.223,-0.069 0.254,-0.06 0.294,-0.06C0.313,-0.06 0.331,-0.063 0.349,-0.07C0.367,-0.076 0.383,-0.086 0.398,-0.1C0.412,-0.113 0.423,-0.131 0.432,-0.152C0.44,-0.173 0.444,-0.199 0.444,-0.228L0.444,-0.5L0.524,-0.5L0.524,-0L0.454,-0L0.449,-0.076C0.432,-0.046 0.408,-0.024 0.379,-0.011C0.349,0.003 0.314,0.01 0.274,0.01Z"
                        style="fill:{{ .colo }};fill-rule:nonzero;" />
                </g>
                <g transform="matrix(42.8679,0,0,42.8679,423.473,538.294)">
                    <path
                        d="M0.211,-0.642L0.211,-0.138C0.211,-0.113 0.218,-0.095 0.232,-0.083C0.246,-0.071 0.264,-0.065 0.286,-0.065C0.305,-0.065 0.322,-0.068 0.336,-0.075C0.35,-0.082 0.363,-0.091 0.374,-0.102L0.402,-0.035C0.387,-0.021 0.369,-0.01 0.348,-0.002C0.327,0.006 0.302,0.01 0.275,0.01C0.25,0.01 0.226,0.006 0.204,-0.004C0.182,-0.013 0.165,-0.027 0.152,-0.047C0.138,-0.066 0.132,-0.092 0.131,-0.124L0.131,-0.62L0.211,-0.642ZM0.393,-0.5L0.393,-0.431L0.031,-0.431L0.031,-0.5L0.393,-0.5Z"
                        style="fill:{{ .colo }};fill-rule:nonzero;" />
                </g>
                <g transform="matrix(42.8679,0,0,42.8679,441.435,538.294)">
                    <path
                        d="M0.274,0.01C0.242,0.01 0.212,0.004 0.184,-0.008C0.155,-0.02 0.132,-0.04 0.115,-0.067C0.097,-0.093 0.088,-0.129 0.088,-0.172L0.088,-0.5L0.168,-0.5L0.168,-0.193C0.168,-0.142 0.179,-0.108 0.201,-0.089C0.223,-0.069 0.254,-0.06 0.294,-0.06C0.313,-0.06 0.331,-0.063 0.349,-0.07C0.367,-0.076 0.383,-0.086 0.398,-0.1C0.412,-0.113 0.423,-0.131 0.432,-0.152C0.44,-0.173 0.444,-0.199 0.444,-0.228L0.444,-0.5L0.524,-0.5L0.524,-0L0.454,-0L0.449,-0.076C0.432,-0.046 0.408,-0.024 0.379,-0.011C0.349,0.003 0.314,0.01 0.274,0.01Z"
                        style="fill:{{ .colo }};fill-rule:nonzero;" />
                </g>
                <g transform="matrix(42.8679,0,0,42.8679,467.884,538.294)">
                    <path
                        d="M0.385,-0.323C0.385,-0.36 0.375,-0.389 0.355,-0.41C0.335,-0.43 0.307,-0.44 0.27,-0.44C0.235,-0.44 0.206,-0.432 0.182,-0.418C0.158,-0.403 0.14,-0.378 0.129,-0.345L0.064,-0.385C0.077,-0.422 0.102,-0.452 0.138,-0.476C0.174,-0.499 0.219,-0.51 0.272,-0.51C0.308,-0.51 0.341,-0.504 0.37,-0.492C0.399,-0.479 0.423,-0.46 0.44,-0.436C0.456,-0.411 0.465,-0.378 0.465,-0.339L0.465,-0.097C0.465,-0.073 0.478,-0.061 0.503,-0.061C0.516,-0.061 0.528,-0.063 0.54,-0.066L0.536,-0.003C0.523,0.004 0.505,0.007 0.484,0.007C0.465,0.007 0.447,0.003 0.432,-0.004C0.417,-0.011 0.405,-0.023 0.396,-0.038C0.387,-0.053 0.383,-0.071 0.383,-0.094L0.383,-0.104L0.403,-0.101C0.395,-0.075 0.381,-0.054 0.362,-0.038C0.343,-0.021 0.321,-0.009 0.297,-0.002C0.273,0.006 0.249,0.01 0.226,0.01C0.197,0.01 0.169,0.005 0.144,-0.005C0.119,-0.015 0.098,-0.03 0.084,-0.051C0.069,-0.071 0.061,-0.096 0.061,-0.126C0.061,-0.163 0.074,-0.194 0.099,-0.219C0.124,-0.243 0.158,-0.259 0.203,-0.268L0.401,-0.307L0.401,-0.241L0.24,-0.208C0.207,-0.201 0.183,-0.192 0.167,-0.18C0.151,-0.168 0.143,-0.151 0.143,-0.13C0.143,-0.109 0.151,-0.093 0.168,-0.08C0.184,-0.067 0.207,-0.06 0.237,-0.06C0.256,-0.06 0.275,-0.063 0.293,-0.068C0.31,-0.073 0.326,-0.08 0.34,-0.091C0.354,-0.101 0.365,-0.114 0.373,-0.13C0.381,-0.145 0.385,-0.164 0.385,-0.185L0.385,-0.323Z"
                        style="fill:{{ .colo }};fill-rule:nonzero;" />
                </g>
                <g transform="matrix(42.8679,0,0,42.8679,492.148,538.294)">
                    <path
                        d="M0.169,-0.73L0.169,-0.127C0.169,-0.102 0.174,-0.084 0.183,-0.075C0.192,-0.065 0.207,-0.06 0.228,-0.06C0.241,-0.06 0.252,-0.061 0.261,-0.063C0.27,-0.065 0.281,-0.069 0.296,-0.074L0.283,-0.004C0.272,0.001 0.261,0.004 0.248,0.007C0.235,0.009 0.222,0.01 0.209,0.01C0.168,0.01 0.138,-0.001 0.119,-0.023C0.099,-0.045 0.089,-0.079 0.089,-0.124L0.089,-0.73L0.169,-0.73Z"
                        style="fill:{{ .colo }};fill-rule:nonzero;" />
                </g>
                <g transform="matrix(42.8679,0,0,42.8679,505.265,538.294)">
                    <path
                        d="M0.133,-0.596C0.115,-0.596 0.1,-0.602 0.09,-0.613C0.079,-0.624 0.073,-0.638 0.073,-0.656C0.073,-0.674 0.079,-0.689 0.09,-0.7C0.1,-0.711 0.115,-0.716 0.133,-0.716C0.151,-0.716 0.166,-0.711 0.177,-0.7C0.188,-0.689 0.193,-0.674 0.193,-0.656C0.193,-0.638 0.188,-0.624 0.177,-0.613C0.166,-0.602 0.151,-0.596 0.133,-0.596ZM0.173,-0.5L0.173,-0L0.093,-0L0.093,-0.5L0.173,-0.5Z"
                        style="fill:{{ .colo }};fill-rule:nonzero;" />
                </g>
                <g transform="matrix(42.8679,0,0,42.8679,516.668,538.294)">
                    <path
                        d="M0.273,0.01C0.224,0.01 0.18,-0 0.139,-0.021C0.097,-0.042 0.066,-0.071 0.044,-0.109L0.112,-0.158C0.127,-0.127 0.148,-0.103 0.177,-0.086C0.205,-0.069 0.239,-0.06 0.279,-0.06C0.314,-0.06 0.342,-0.067 0.362,-0.081C0.382,-0.094 0.392,-0.112 0.392,-0.134C0.392,-0.148 0.388,-0.161 0.379,-0.173C0.37,-0.184 0.352,-0.193 0.327,-0.198L0.207,-0.223C0.158,-0.233 0.124,-0.25 0.103,-0.273C0.082,-0.296 0.071,-0.325 0.071,-0.36C0.071,-0.387 0.079,-0.412 0.095,-0.435C0.11,-0.458 0.133,-0.476 0.162,-0.49C0.191,-0.503 0.225,-0.51 0.264,-0.51C0.313,-0.51 0.355,-0.5 0.389,-0.481C0.423,-0.462 0.448,-0.434 0.465,-0.399L0.398,-0.355C0.387,-0.384 0.368,-0.406 0.343,-0.42C0.318,-0.433 0.291,-0.44 0.264,-0.44C0.24,-0.44 0.22,-0.437 0.203,-0.43C0.186,-0.423 0.172,-0.414 0.164,-0.403C0.155,-0.391 0.15,-0.378 0.15,-0.363C0.15,-0.348 0.155,-0.335 0.165,-0.323C0.175,-0.31 0.194,-0.301 0.221,-0.296L0.346,-0.27C0.393,-0.261 0.425,-0.245 0.444,-0.224C0.463,-0.203 0.472,-0.177 0.472,-0.146C0.472,-0.115 0.464,-0.087 0.447,-0.064C0.43,-0.04 0.407,-0.022 0.377,-0.009C0.347,0.004 0.312,0.01 0.273,0.01Z"
                        style="fill:{{ .colo }};fill-rule:nonzero;" />
                </g>
                <g transform="matrix(42.8679,0,0,42.8679,539.259,538.294)">
                    <path
                        d="M0.302,0.01C0.255,0.01 0.213,-0 0.176,-0.021C0.138,-0.042 0.11,-0.072 0.089,-0.111C0.068,-0.15 0.058,-0.196 0.058,-0.25C0.058,-0.304 0.068,-0.351 0.089,-0.39C0.11,-0.429 0.138,-0.458 0.174,-0.479C0.21,-0.5 0.251,-0.51 0.297,-0.51C0.344,-0.51 0.384,-0.5 0.417,-0.48C0.45,-0.46 0.475,-0.433 0.492,-0.399C0.509,-0.364 0.518,-0.326 0.518,-0.283C0.518,-0.272 0.518,-0.261 0.517,-0.252C0.516,-0.243 0.515,-0.234 0.514,-0.227L0.11,-0.227L0.11,-0.298L0.479,-0.298L0.438,-0.29C0.438,-0.338 0.425,-0.375 0.399,-0.401C0.372,-0.427 0.338,-0.44 0.295,-0.44C0.262,-0.44 0.234,-0.432 0.211,-0.418C0.187,-0.403 0.169,-0.381 0.156,-0.353C0.142,-0.324 0.136,-0.29 0.136,-0.25C0.136,-0.211 0.143,-0.177 0.156,-0.148C0.169,-0.119 0.188,-0.097 0.213,-0.083C0.237,-0.068 0.266,-0.06 0.3,-0.06C0.337,-0.06 0.367,-0.067 0.39,-0.081C0.413,-0.095 0.431,-0.114 0.445,-0.138L0.508,-0.101C0.495,-0.078 0.479,-0.059 0.46,-0.042C0.44,-0.025 0.417,-0.013 0.391,-0.004C0.364,0.006 0.335,0.01 0.302,0.01ZM0.318,-0.75L0.405,-0.75L0.307,-0.583L0.242,-0.583L0.318,-0.75Z"
                        style="fill:{{ .colo }};fill-rule:nonzero;" />
                </g>
            </g>
        </g>
        <g transform="matrix(0.914286,0,0,0.831461,-15.5429,-111.416)">
            <g transform="matrix(0.550817,0,0,0.605686,564.661,227.043)">
                <g transform="matrix(1,0,0,1,-384,-71)">
                    <g transform="matrix(5.55556,0,0,5.55556,-5.55556,-5.55556)">
                        <g transform="matrix(1.25,0,0,-1.25,17.801,7.0975)">
                            <g id="g3051">
                                <g id="g3053">
                                    <g id="g3059">
                                        <path id="path3061"
                                            d="M0,0L0.01,-0.001L0.03,0C1.396,0.001 2.549,-0.485 3.325,-1.35C4.102,-2.211 4.589,-3.4 4.592,-4.742L4.592,-4.761C4.592,-5.261 4.589,-6.132 4.446,-6.7L4.413,-6.826L-5.691,-6.826L-5.677,-6.646L-5.639,-6.191C-5.505,-4.509 -4.749,-3.074 -3.873,-1.922C-2.995,-0.761 -1.615,0.001 0,0M-7.202,-7.423C-7.2,-10.12 -6.431,-12.105 -5.135,-13.431C-3.838,-14.755 -1.974,-15.465 0.376,-15.467L0.38,-15.467C1.917,-15.467 3.176,-15.145 4.163,-14.501C5.033,-13.927 5.636,-13.134 5.897,-11.974L4.808,-11.626C4.62,-12.529 4.255,-13.282 3.647,-13.833C2.893,-14.514 1.85,-14.806 0.572,-14.807L0.543,-14.807C-1.167,-14.808 -2.669,-14.129 -3.705,-12.933C-4.737,-11.746 -5.642,-10.064 -5.642,-8.07L-5.642,-7.482L5.762,-7.482C5.892,-6.781 5.939,-6.071 5.939,-5.48C5.937,-3.462 5.381,-1.971 4.399,-0.973C3.416,0.024 1.958,0.584 -0.02,0.587C-4.237,0.557 -7.163,-2.412 -7.202,-7.423"
                                            style="fill:{{ .colo }};fill-rule:nonzero;" />
                                    </g>
                                </g>
                            </g>
                        </g>
                        <g transform="matrix(1,0,0,1,-374,-200.94)">
                            <rect id="path3063" x="375" y="201.94" width="1.51" height="25.194"
                                style="fill:{{ .colo }};" />
                        </g>
                        <g transform="matrix(1.25,0,0,-1.25,46.3935,6.31875)">
                            <g id="g3073">
                                <path id="path3075"
                                    d="M0,0C-4.916,-0.028 -7.451,-3.248 -7.488,-8.054C-7.459,-12.84 -4.638,-16.119 0.248,-16.143C3.871,-16.107 5.555,-14.726 6.281,-12.054C5.75,-11.881 5.335,-11.758 4.768,-11.583C4.231,-13.548 2.82,-14.977 0.415,-14.977L0.341,-14.977C-1.428,-14.977 -2.902,-14.188 -3.897,-12.926C-4.899,-11.665 -5.439,-9.946 -5.439,-8.054C-5.438,-6.194 -5.015,-4.494 -4.122,-3.229C-3.238,-1.965 -1.853,-1.164 -0.085,-1.164L-0.051,-1.164C2.069,-1.164 3.62,-2.529 4.224,-4.459C4.786,-4.283 5.286,-4.103 5.909,-3.903C5.355,-1.479 3.304,-0.022 0,0"
                                    style="fill:{{ .colo }};fill-rule:nonzero;" />
                            </g>
                        </g>
                        <g transform="matrix(1.25,0,0,-1.25,69.856,6.2925)">
                            <g id="g3077">
                                <path id="path3079"
                                    d="M0,0C-3.338,-0.02 -4.934,-1.257 -5.763,-4.615L-6.134,-4.6L-6.836,-0.334L-8.447,-0.334L-8.447,-15.94L-5.519,-15.94L-5.519,-11.281C-5.516,-6.546 -3.847,-2.596 -0.722,-2.563L-0.711,-2.563C0.25,-2.563 1.067,-2.874 1.63,-3.517C2.194,-4.162 2.494,-5.114 2.494,-6.363L2.494,-15.941L5.416,-15.94L5.416,-6.122C5.395,-2.326 3.612,-0.016 0,0"
                                    style="fill:{{ .colo }};fill-rule:nonzero;" />
                            </g>
                        </g>
                        <g transform="matrix(1.25,0,0,-1.25,131.823,6.31875)">
                            <g id="g3081">
                                <path id="path3083"
                                    d="M0,0C-2.397,0 -4.135,-1.943 -5.185,-4.545C-6.146,-1.372 -8.578,0 -10.645,0C-13.31,0 -15.224,-1.711 -16.28,-4.489L-16.678,-4.487L-17.514,-0.292L-20.88,-0.292L-20.88,-15.922L-15.343,-15.922L-15.343,-12.031C-15.343,-10.417 -15.284,-5.145 -12.517,-5.145C-12.133,-5.145 -11.072,-5.145 -11.072,-7.327L-11.072,-15.922L-4.698,-15.922L-4.698,-12.031C-4.698,-8.715 -3.922,-5.145 -1.873,-5.145C-1.49,-5.145 -0.429,-5.145 -0.429,-7.327L-0.429,-15.922L5.892,-15.922L5.892,-7.327C5.892,-1.271 2.687,0 0,0"
                                    style="fill:{{ .colo }};fill-rule:nonzero;" />
                            </g>
                        </g>
                        <g transform="matrix(1.25,0,0,-1.25,90.931,6.33375)">
                            <g id="g3085">
                                <path id="path3087"
                                    d="M0,0C-4.506,0 -7.089,-1.711 -7.089,-4.694C-7.089,-5.129 -7.034,-5.587 -6.925,-6.061C-6.913,-6.113 -6.881,-6.246 -6.841,-6.371C-6.803,-6.492 -6.759,-6.607 -6.746,-6.638L-2.502,-5.689C-2.502,-5.689 -2.553,-5.545 -2.581,-5.379C-2.616,-5.176 -2.628,-4.94 -2.628,-4.896C-2.628,-3.673 -1.722,-2.944 -0.204,-2.944C1.45,-2.944 2.289,-4.066 2.289,-6.28L2.289,-8.067L2.144,-8.05C1.009,-7.917 -0.065,-7.85 -1.047,-7.85C-5.161,-7.85 -7.427,-9.341 -7.427,-12.049C-7.427,-14.608 -5.635,-16.136 -2.633,-16.136C0.467,-16.136 1.82,-14.382 2.409,-12.911L2.659,-12.949C2.829,-15.101 4.085,-16.103 6.611,-16.103C7.724,-16.103 8.564,-15.825 9.248,-15.23L9.248,-13.44C9.071,-13.488 8.857,-13.529 8.567,-13.529C7.572,-13.529 7.089,-12.979 7.089,-11.846L7.089,-6.82C7.089,-2.231 4.77,0 0,0M-0.911,-13.664C-2.071,-13.664 -2.763,-13.06 -2.763,-12.049C-2.763,-10.62 -1.928,-9.612 2.15,-9.344L2.289,-9.335L2.289,-9.991C2.289,-12.222 1.033,-13.664 -0.911,-13.664"
                                    style="fill:{{ .colo }};fill-rule:nonzero;" />
                            </g>
                        </g>
                    </g>
                </g>
            </g>
        </g>
        <g transform="matrix(0.914286,0,0,0.831461,-15.5429,-111.416)">
            <g transform="matrix(1,0,0,1,0.109375,-0.923125)">
                <g transform="matrix(1.09375,0,0,1.2027,17,134)">
                    <rect x="68" y="67" width="87" height="6" style="fill:{{ .colo }};" />
                </g>
                <g transform="matrix(1.09375,0,0,1.2027,17,240.962)">
                    <rect x="68" y="67" width="87" height="6" style="fill:{{ .colo }};" />
                </g>
                <g transform="matrix(1,0,0,1,-0.820312,0)">
                    <g transform="matrix(1.09375,0,0,1.2027,13.7188,134)">
                        <path d="M87,154L143,154L143,125L120,125L120,110L87,110L87,154Z" style="fill:{{ .colo }};" />
                    </g>
                    <g>
                        <g transform="matrix(1.09375,0,0,1.2027,17.5469,134)">
                            <rect x="114" y="62" width="26" height="20" style="fill:{{ .colo }};" />
                        </g>
                        <g transform="matrix(1.1849,0,0,1.2027,5.97135,134)">
                            <path d="M130.217,102L123.783,102L115,82L139,82L130.217,102Z" style="fill:{{ .colo }};" />
                        </g>
                        <g transform="matrix(5.58107e-17,-1.00225,1.25973,8.48198e-17,21.6625,379.552)">
                            <path d="M125,109L119,109L120.8,105L125,105L125,109Z" style="fill:{{ .colo }};" />
                        </g>
                        <g transform="matrix(1.09375,0,0,1.2027,17.1792,141.501)">
                            <path
                                d="M125.033,109.266L125.033,104.863L129.64,106.363L129.64,107.563L129.663,107.563L129.64,109.297L129.64,109.863L129.632,109.863L129.595,112.562L125.009,111L125.033,109.266Z"
                                style="fill:{{ .colo }};" />
                        </g>
                        <g transform="matrix(1.09375,0,0,1.2027,17.1792,133.203)">
                            <path
                                d="M125.033,109.266L125.033,104.863L129.64,106.363L129.64,107.563L129.663,107.563L129.64,109.297L129.64,109.863L129.632,109.863L129.595,112.562L125.009,111L125.033,109.266Z"
                                style="fill:{{ .colo }};" />
                        </g>
                        <g transform="matrix(1.09375,0,0,1.2027,17.1719,133.549)">
                            <path
                                d="M125.023,123.529L125.033,122.777L125.033,118.375L129.64,119.875L129.64,121.074L129.663,121.074L129.64,122.808L129.64,123.375L129.632,123.375L129.627,123.744L127.503,125.062L125.023,123.529Z"
                                style="fill:{{ .colo }};" />
                        </g>
                    </g>
                </g>
            </g>
        </g>
    </g>
</svg>