<?xml version="1.0" encoding="UTF-8" standalone="no"?><!DOCTYPE svg PUBLIC "-//W3C//DTD SVG 1.1//EN" "http://www.w3.org/Graphics/SVG/1.1/DTD/svg11.dtd"><svg width="100%" height="100%" viewBox="0 0 2399 707" version="1.1" xmlns="http://www.w3.org/2000/svg" xmlns:xlink="http://www.w3.org/1999/xlink" xml:space="preserve" xmlns:serif="http://www.serif.com/" style="fill-rule:evenodd;clip-rule:evenodd;stroke-linejoin:round;stroke-miterlimit:2;"><rect id="Artboard1" x="0" y="0" width="2398.79" height="706.331" style="fill:none;"/><path d="M310.218,123.526l0,0.047l-254.939,580.084l-49.117,-0l195.657,-698.669l91.431,-0l27.008,93.904l-10.04,24.634Z" style="fill:#1c1c1c;"/><path d="M527.174,343.167c4.302,7.644 7.04,15.022 8.213,22.133c-8.213,3.2 -16.622,5.511 -25.226,6.933c-8.605,1.423 -17.894,2.134 -27.867,2.134c-15.253,-0 -28.991,-2.267 -41.213,-6.8c-12.222,-4.534 -22.538,-11.022 -30.947,-19.467c-8.409,-8.444 -14.862,-18.711 -19.36,-30.8c-4.498,-12.089 -6.747,-25.689 -6.747,-40.8c0,-15.289 2.249,-29.111 6.747,-41.467c4.498,-12.355 10.951,-22.888 19.36,-31.6c8.409,-8.711 18.676,-15.422 30.8,-20.133c12.125,-4.711 25.716,-7.067 40.773,-7.067c11.147,0 20.729,0.712 28.747,2.134c8.018,1.422 15.156,3.111 21.413,5.066c-0.391,4.089 -1.222,7.867 -2.493,11.334c-1.271,3.466 -2.787,7.155 -4.547,11.066c-2.933,-0.888 -5.768,-1.688 -8.506,-2.4c-2.738,-0.711 -5.671,-1.333 -8.8,-1.866c-3.129,-0.534 -6.6,-0.934 -10.414,-1.2c-3.813,-0.267 -8.164,-0.4 -13.053,-0.4c-21.315,-0 -37.889,6.578 -49.72,19.733c-11.831,13.156 -17.747,32.089 -17.747,56.8c0,12.622 1.663,23.556 4.987,32.8c3.325,9.245 8.018,16.889 14.08,22.933c6.062,6.045 13.347,10.578 21.853,13.6c8.507,3.023 18.04,4.534 28.6,4.534c8.214,-0 15.645,-0.622 22.294,-1.867c6.649,-1.244 12.906,-3.022 18.773,-5.333Z" style="fill:#1c1c1c;fill-rule:nonzero;"/><path d="M556.507,175.7c2.152,-0.355 4.547,-0.622 7.187,-0.8c2.64,-0.178 5.036,-0.267 7.187,-0.267c2.151,0 4.595,0.089 7.333,0.267c2.738,0.178 5.182,0.445 7.333,0.8l0,79.467c1.76,-2.489 3.96,-5.156 6.6,-8c2.64,-2.845 5.867,-5.467 9.68,-7.867c3.814,-2.4 8.214,-4.355 13.2,-5.867c4.987,-1.511 10.512,-2.266 16.574,-2.266c17.209,-0 29.969,4.489 38.28,13.466c8.311,8.978 12.466,22.267 12.466,39.867l0,86.667c-2.151,0.355 -4.546,0.622 -7.186,0.8c-2.64,0.178 -5.036,0.266 -7.187,0.266c-2.151,0 -4.547,-0.088 -7.187,-0.266c-2.64,-0.178 -5.035,-0.445 -7.186,-0.8l-0,-79.467c-0,-12.622 -2.298,-21.911 -6.894,-27.867c-4.595,-5.955 -11.586,-8.933 -20.973,-8.933c-5.28,0 -10.364,0.845 -15.253,2.533c-4.889,1.689 -9.191,4.356 -12.907,8c-3.715,3.645 -6.649,8.4 -8.8,14.267c-2.151,5.867 -3.227,12.978 -3.227,21.333l0,70.134c-2.151,0.355 -4.595,0.622 -7.333,0.8c-2.738,0.178 -5.182,0.266 -7.333,0.266c-1.956,0 -4.302,-0.088 -7.04,-0.266c-2.738,-0.178 -5.182,-0.445 -7.334,-0.8l0,-195.467Z" style="fill:#1c1c1c;fill-rule:nonzero;"/><path d="M791.174,306.9c-2.933,-0.355 -6.649,-0.711 -11.147,-1.067c-4.497,-0.355 -8.311,-0.533 -11.44,-0.533c-12.124,0 -21.364,2.045 -27.72,6.133c-6.355,4.089 -9.533,10.312 -9.533,18.667c0,5.333 1.076,9.511 3.227,12.533c2.151,3.023 4.84,5.334 8.066,6.934c3.227,1.6 6.796,2.578 10.707,2.933c3.911,0.356 7.627,0.533 11.147,0.533c4.498,0 9.142,-0.222 13.933,-0.666c4.791,-0.445 9.045,-1.111 12.76,-2l0,-43.467Zm0,-25.867c0,-10.488 -2.933,-17.777 -8.8,-21.866c-5.867,-4.089 -14.373,-6.134 -25.52,-6.134c-6.844,0 -13.249,0.489 -19.213,1.467c-5.965,0.978 -11.782,2.267 -17.454,3.867c-3.715,-5.867 -5.573,-12.889 -5.573,-21.067c6.649,-1.955 13.982,-3.467 22,-4.533c8.018,-1.067 15.742,-1.6 23.173,-1.6c19.556,-0 34.418,4.044 44.587,12.133c10.169,8.089 15.253,21.022 15.253,38.8l0,85.6c-6.844,1.422 -15.155,2.889 -24.933,4.4c-9.778,1.511 -19.751,2.267 -29.92,2.267c-9.582,-0 -18.235,-0.8 -25.96,-2.4c-7.724,-1.6 -14.275,-4.178 -19.653,-7.734c-5.378,-3.555 -9.534,-8.088 -12.467,-13.6c-2.933,-5.511 -4.4,-12.177 -4.4,-20c0,-7.644 1.711,-14.355 5.133,-20.133c3.423,-5.778 8.067,-10.578 13.934,-14.4c5.866,-3.822 12.613,-6.667 20.24,-8.533c7.626,-1.867 15.644,-2.8 24.053,-2.8c6.258,-0 11.391,0.133 15.4,0.4c4.009,0.266 7.382,0.578 10.12,0.933l0,-5.067Z" style="fill:#1c1c1c;fill-rule:nonzero;"/><path d="M857.467,255.167l-19.066,-0c-0.391,-1.422 -0.685,-3.067 -0.88,-4.934c-0.196,-1.866 -0.294,-3.688 -0.294,-5.466c0,-1.778 0.098,-3.6 0.294,-5.467c0.195,-1.867 0.489,-3.511 0.88,-4.933l47.52,-0l-0,136.8c-2.151,0.355 -4.547,0.622 -7.187,0.8c-2.64,0.178 -5.035,0.266 -7.187,0.266c-1.955,0 -4.253,-0.088 -6.893,-0.266c-2.64,-0.178 -5.035,-0.445 -7.187,-0.8l0,-116Zm-6.453,-50.934c-0.391,-2.133 -0.635,-4.444 -0.733,-6.933c-0.098,-2.489 -0.147,-4.711 -0.147,-6.667c0,-1.955 0.049,-4.177 0.147,-6.666c0.098,-2.489 0.342,-4.711 0.733,-6.667c2.542,-0.355 5.28,-0.622 8.213,-0.8c2.934,-0.178 5.476,-0.267 7.627,-0.267c2.151,0 4.693,0.089 7.627,0.267c2.933,0.178 5.573,0.445 7.92,0.8c0.391,1.956 0.635,4.178 0.733,6.667c0.098,2.489 0.147,4.711 0.147,6.666c-0,1.956 -0.049,4.178 -0.147,6.667c-0.098,2.489 -0.342,4.8 -0.733,6.933c-2.347,0.356 -4.938,0.623 -7.774,0.8c-2.835,0.178 -5.328,0.267 -7.48,0.267c-2.346,0 -4.986,-0.089 -7.92,-0.267c-2.933,-0.177 -5.671,-0.444 -8.213,-0.8Z" style="fill:#1c1c1c;fill-rule:nonzero;"/><path d="M918.481,234.367c2.151,-0.356 4.204,-0.622 6.16,-0.8c1.955,-0.178 4.009,-0.267 6.16,-0.267c2.151,0 4.302,0.089 6.453,0.267c2.151,0.178 4.107,0.444 5.867,0.8c0.586,2.666 1.173,6.178 1.76,10.533c0.586,4.356 0.88,8.045 0.88,11.067c4.106,-6.045 9.533,-11.289 16.28,-15.734c6.746,-4.444 15.4,-6.666 25.96,-6.666c1.564,-0 3.178,0.044 4.84,0.133c1.662,0.089 3.08,0.222 4.253,0.4c0.391,1.6 0.685,3.289 0.88,5.067c0.196,1.778 0.293,3.644 0.293,5.6c0,2.133 -0.146,4.355 -0.44,6.666c-0.293,2.312 -0.635,4.534 -1.026,6.667c-1.565,-0.355 -3.178,-0.533 -4.84,-0.533l-3.96,-0c-5.28,-0 -10.316,0.666 -15.107,2c-4.791,1.333 -9.093,3.689 -12.907,7.066c-3.813,3.378 -6.844,8 -9.093,13.867c-2.249,5.867 -3.373,13.422 -3.373,22.667l-0,68c-2.151,0.355 -4.547,0.622 -7.187,0.8c-2.64,0.178 -5.035,0.266 -7.187,0.266c-2.151,0 -4.546,-0.088 -7.186,-0.266c-2.64,-0.178 -5.134,-0.445 -7.48,-0.8l-0,-136.8Z" style="fill:#1c1c1c;fill-rule:nonzero;"/><path d="M1034.64,309.3c0.391,14.933 4.644,25.867 12.76,32.8c8.115,6.933 20.093,10.4 35.933,10.4c13.885,0 27.085,-2.222 39.6,-6.667c1.565,2.667 2.836,5.912 3.813,9.734c0.978,3.822 1.565,7.6 1.76,11.333c-6.453,2.489 -13.542,4.356 -21.266,5.6c-7.725,1.245 -16.28,1.867 -25.667,1.867c-13.689,-0 -25.422,-1.734 -35.2,-5.2c-9.778,-3.467 -17.844,-8.356 -24.2,-14.667c-6.355,-6.311 -11,-13.778 -13.933,-22.4c-2.934,-8.622 -4.4,-18.089 -4.4,-28.4c-0,-10.133 1.418,-19.6 4.253,-28.4c2.836,-8.8 7.187,-16.444 13.053,-22.933c5.867,-6.489 13.249,-11.645 22.147,-15.467c8.898,-3.822 19.409,-5.733 31.533,-5.733c10.365,-0 19.458,1.6 27.28,4.8c7.823,3.2 14.374,7.6 19.654,13.2c5.28,5.6 9.289,12.266 12.026,20c2.738,7.733 4.107,16.133 4.107,25.2c0,2.489 -0.098,5.111 -0.293,7.866c-0.196,2.756 -0.391,5.112 -0.587,7.067l-102.373,0Zm74.506,-19.733c0,-4.978 -0.733,-9.734 -2.2,-14.267c-1.466,-4.533 -3.617,-8.489 -6.453,-11.867c-2.835,-3.377 -6.453,-6.088 -10.853,-8.133c-4.4,-2.044 -9.631,-3.067 -15.694,-3.067c-11.928,0 -21.071,3.289 -27.426,9.867c-6.356,6.578 -10.218,15.733 -11.587,27.467l74.213,-0Z" style="fill:#1c1c1c;fill-rule:nonzero;"/><path d="M1312.72,175.7c2.151,-0.355 4.595,-0.622 7.333,-0.8c2.738,-0.178 5.085,-0.267 7.04,-0.267c2.151,0 4.547,0.089 7.187,0.267c2.64,0.178 5.035,0.445 7.186,0.8l0,191.733c-7.431,1.956 -15.742,3.6 -24.933,4.934c-9.191,1.333 -19.458,2 -30.8,2c-10.56,-0 -20.582,-1.2 -30.067,-3.6c-9.484,-2.4 -17.746,-6.356 -24.786,-11.867c-7.04,-5.511 -12.614,-12.622 -16.72,-21.333c-4.107,-8.711 -6.16,-19.467 -6.16,-32.267c-0,-11.022 1.809,-21.067 5.426,-30.133c3.618,-9.067 8.752,-16.845 15.4,-23.334c6.649,-6.488 14.618,-11.511 23.907,-15.066c9.289,-3.556 19.605,-5.334 30.947,-5.334c5.084,0 10.218,0.356 15.4,1.067c5.182,0.711 9.729,1.6 13.64,2.667l-0,-59.467Zm-0,81.867c-3.911,-1.422 -8.116,-2.489 -12.614,-3.2c-4.497,-0.711 -9.386,-1.067 -14.666,-1.067c-8.018,0 -14.96,1.333 -20.827,4c-5.867,2.667 -10.707,6.311 -14.52,10.933c-3.813,4.623 -6.649,10.089 -8.507,16.4c-1.857,6.312 -2.786,13.2 -2.786,20.667c0.195,16.889 4.595,28.978 13.2,36.267c8.604,7.289 20.338,10.933 35.2,10.933c5.084,0 9.778,-0.222 14.08,-0.667c4.302,-0.444 8.115,-1.111 11.44,-2l-0,-92.266Z" style="fill:#1c1c1c;fill-rule:nonzero;"/><path d="M1395.15,309.3c0.392,14.933 4.645,25.867 12.76,32.8c8.116,6.933 20.094,10.4 35.934,10.4c13.884,0 27.084,-2.222 39.6,-6.667c1.564,2.667 2.835,5.912 3.813,9.734c0.978,3.822 1.565,7.6 1.76,11.333c-6.453,2.489 -13.542,4.356 -21.267,5.6c-7.724,1.245 -16.28,1.867 -25.666,1.867c-13.689,-0 -25.422,-1.734 -35.2,-5.2c-9.778,-3.467 -17.845,-8.356 -24.2,-14.667c-6.356,-6.311 -11,-13.778 -13.934,-22.4c-2.933,-8.622 -4.4,-18.089 -4.4,-28.4c0,-10.133 1.418,-19.6 4.254,-28.4c2.835,-8.8 7.186,-16.444 13.053,-22.933c5.867,-6.489 13.249,-11.645 22.147,-15.467c8.898,-3.822 19.409,-5.733 31.533,-5.733c10.365,-0 19.458,1.6 27.28,4.8c7.822,3.2 14.373,7.6 19.653,13.2c5.28,5.6 9.289,12.266 12.027,20c2.738,7.733 4.107,16.133 4.107,25.2c-0,2.489 -0.098,5.111 -0.294,7.866c-0.195,2.756 -0.391,5.112 -0.586,7.067l-102.374,0Zm74.507,-19.733c0,-4.978 -0.733,-9.734 -2.2,-14.267c-1.467,-4.533 -3.618,-8.489 -6.453,-11.867c-2.836,-3.377 -6.454,-6.088 -10.854,-8.133c-4.4,-2.044 -9.631,-3.067 -15.693,-3.067c-11.929,0 -21.071,3.289 -27.427,9.867c-6.355,6.578 -10.217,15.733 -11.586,27.467l74.213,-0Z" style="fill:#1c1c1c;fill-rule:nonzero;"/><path d="M1579.36,179.433c6.649,-0.711 14.666,-1.377 24.053,-2c9.387,-0.622 18.578,-0.933 27.573,-0.933c36.96,0 64.583,8.533 82.867,25.6c18.285,17.067 27.427,41.6 27.427,73.6c-0,33.422 -9.338,58.222 -28.014,74.4c-18.675,16.178 -46.493,24.267 -83.453,24.267c-9.191,-0 -18.284,-0.311 -27.28,-0.934c-8.995,-0.622 -16.72,-1.377 -23.173,-2.266l-0,-191.734Zm29.92,169.334c2.738,0.355 6.111,0.666 10.12,0.933c4.009,0.267 8.262,0.4 12.76,0.4c11.538,0 22.049,-1.2 31.533,-3.6c9.485,-2.4 17.649,-6.444 24.493,-12.133c6.845,-5.689 12.125,-13.378 15.84,-23.067c3.716,-9.689 5.574,-21.822 5.574,-36.4c-0,-13.333 -1.858,-24.711 -5.574,-34.133c-3.715,-9.422 -8.946,-17.111 -15.693,-23.067c-6.747,-5.955 -14.813,-10.267 -24.2,-12.933c-9.387,-2.667 -19.751,-4 -31.093,-4c-3.716,-0 -7.774,0.044 -12.174,0.133c-4.4,0.089 -8.262,0.4 -11.586,0.933l-0,146.934Z" style="fill:#1c1c1c;fill-rule:nonzero;"/><path d="M1788.8,309.3c0.391,14.933 4.644,25.867 12.76,32.8c8.115,6.933 20.093,10.4 35.933,10.4c13.885,0 27.085,-2.222 39.6,-6.667c1.565,2.667 2.836,5.912 3.813,9.734c0.978,3.822 1.565,7.6 1.76,11.333c-6.453,2.489 -13.542,4.356 -21.266,5.6c-7.725,1.245 -16.28,1.867 -25.667,1.867c-13.689,-0 -25.422,-1.734 -35.2,-5.2c-9.778,-3.467 -17.844,-8.356 -24.2,-14.667c-6.355,-6.311 -11,-13.778 -13.933,-22.4c-2.934,-8.622 -4.4,-18.089 -4.4,-28.4c-0,-10.133 1.418,-19.6 4.253,-28.4c2.836,-8.8 7.187,-16.444 13.053,-22.933c5.867,-6.489 13.249,-11.645 22.147,-15.467c8.898,-3.822 19.409,-5.733 31.533,-5.733c10.365,-0 19.458,1.6 27.28,4.8c7.823,3.2 14.374,7.6 19.654,13.2c5.28,5.6 9.289,12.266 12.026,20c2.738,7.733 4.107,16.133 4.107,25.2c0,2.489 -0.098,5.111 -0.293,7.866c-0.196,2.756 -0.391,5.112 -0.587,7.067l-102.373,0Zm74.506,-19.733c0,-4.978 -0.733,-9.734 -2.2,-14.267c-1.466,-4.533 -3.617,-8.489 -6.453,-11.867c-2.835,-3.377 -6.453,-6.088 -10.853,-8.133c-4.4,-2.044 -9.631,-3.067 -15.694,-3.067c-11.928,0 -21.071,3.289 -27.426,9.867c-6.356,6.578 -10.218,15.733 -11.587,27.467l74.213,-0Z" style="fill:#1c1c1c;fill-rule:nonzero;"/><path d="M1912.88,346.367c5.28,1.955 11.098,3.511 17.453,4.666c6.356,1.156 12.662,1.734 18.92,1.734c4.498,-0 8.8,-0.445 12.907,-1.334c4.106,-0.888 7.675,-2.222 10.706,-4c3.032,-1.777 5.476,-3.955 7.334,-6.533c1.858,-2.578 2.786,-5.467 2.786,-8.667c0,-3.555 -0.733,-6.488 -2.2,-8.8c-1.466,-2.311 -3.422,-4.266 -5.866,-5.866c-2.445,-1.6 -5.28,-2.978 -8.507,-4.134c-3.227,-1.155 -6.698,-2.266 -10.413,-3.333l-10.267,-3.467c-12.515,-4.266 -21.609,-9.066 -27.28,-14.4c-5.671,-5.333 -8.507,-12.533 -8.507,-21.6c0,-12.088 4.743,-21.688 14.227,-28.8c9.485,-7.111 23.418,-10.666 41.8,-10.666c7.627,-0 15.107,0.666 22.44,2c7.333,1.333 13.738,2.889 19.213,4.666c-0.391,3.556 -1.124,7.112 -2.2,10.667c-1.075,3.556 -2.395,6.845 -3.96,9.867c-4.302,-1.422 -9.435,-2.8 -15.4,-4.134c-5.964,-1.333 -12.368,-2 -19.213,-2c-7.235,0 -13.64,1.156 -19.213,3.467c-5.574,2.311 -8.36,6.4 -8.36,12.267c-0,3.022 0.684,5.6 2.053,7.733c1.369,2.133 3.227,3.956 5.573,5.467c2.347,1.511 5.036,2.8 8.067,3.866c3.031,1.067 6.307,2.134 9.827,3.2l12.906,4c4.694,1.423 9.143,3.112 13.347,5.067c4.205,1.956 7.822,4.4 10.853,7.333c3.032,2.934 5.476,6.489 7.334,10.667c1.858,4.178 2.786,9.2 2.786,15.067c0,6.578 -1.466,12.578 -4.4,18c-2.933,5.422 -7.088,10.044 -12.466,13.866c-5.378,3.823 -11.88,6.8 -19.507,8.934c-7.627,2.133 -16.035,3.2 -25.227,3.2c-9.386,-0 -17.6,-0.578 -24.64,-1.734c-7.04,-1.155 -13.591,-2.711 -19.653,-4.666c0.391,-3.556 1.222,-7.156 2.493,-10.8c1.272,-3.645 2.689,-7.245 4.254,-10.8Z" style="fill:#1c1c1c;fill-rule:nonzero;"/><path d="M2043.12,255.167l-19.067,-0c-0.391,-1.422 -0.684,-3.067 -0.88,-4.934c-0.195,-1.866 -0.293,-3.688 -0.293,-5.466c-0,-1.778 0.098,-3.6 0.293,-5.467c0.196,-1.867 0.489,-3.511 0.88,-4.933l47.52,-0l0,136.8c-2.151,0.355 -4.547,0.622 -7.187,0.8c-2.64,0.178 -5.035,0.266 -7.186,0.266c-1.956,0 -4.254,-0.088 -6.894,-0.266c-2.64,-0.178 -5.035,-0.445 -7.186,-0.8l-0,-116Zm-6.454,-50.934c-0.391,-2.133 -0.635,-4.444 -0.733,-6.933c-0.098,-2.489 -0.147,-4.711 -0.147,-6.667c0,-1.955 0.049,-4.177 0.147,-6.666c0.098,-2.489 0.342,-4.711 0.733,-6.667c2.543,-0.355 5.28,-0.622 8.214,-0.8c2.933,-0.178 5.475,-0.267 7.626,-0.267c2.152,0 4.694,0.089 7.627,0.267c2.933,0.178 5.573,0.445 7.92,0.8c0.391,1.956 0.636,4.178 0.733,6.667c0.098,2.489 0.147,4.711 0.147,6.666c0,1.956 -0.049,4.178 -0.147,6.667c-0.097,2.489 -0.342,4.8 -0.733,6.933c-2.347,0.356 -4.938,0.623 -7.773,0.8c-2.836,0.178 -5.329,0.267 -7.48,0.267c-2.347,0 -4.987,-0.089 -7.92,-0.267c-2.934,-0.177 -5.671,-0.444 -8.214,-0.8Z" style="fill:#1c1c1c;fill-rule:nonzero;"/><path d="M2184.8,353.567c17.404,0.355 30.018,3.733 37.84,10.133c7.822,6.4 11.733,15.2 11.733,26.4c0,7.289 -2.053,13.822 -6.16,19.6c-4.107,5.778 -9.778,10.756 -17.013,14.933c-7.236,4.178 -15.791,7.378 -25.667,9.6c-9.875,2.223 -20.582,3.334 -32.12,3.334c-20.142,-0 -35.493,-2.845 -46.053,-8.534c-10.56,-5.688 -15.84,-14.666 -15.84,-26.933c-0,-7.289 2.151,-13.822 6.453,-19.6c4.302,-5.778 9.876,-10.355 16.72,-13.733c-3.911,-2.311 -7.187,-5.2 -9.827,-8.667c-2.64,-3.467 -3.96,-7.778 -3.96,-12.933c0,-6.578 1.614,-12.267 4.84,-17.067c3.227,-4.8 7.578,-9.067 13.054,-12.8c-6.454,-4.089 -11.636,-9.378 -15.547,-15.867c-3.911,-6.488 -5.867,-13.822 -5.867,-22c0,-6.755 1.369,-13.066 4.107,-18.933c2.738,-5.867 6.698,-10.978 11.88,-15.333c5.182,-4.356 11.587,-7.778 19.213,-10.267c7.627,-2.489 16.329,-3.733 26.107,-3.733c8.8,-0 16.769,1.155 23.907,3.466c7.138,2.312 13.249,5.245 18.333,8.8c3.911,-2.844 9.191,-5.2 15.84,-7.066c6.649,-1.867 13.982,-2.8 22,-2.8c0.782,3.378 1.173,7.111 1.173,11.2c0,1.955 -0.097,4 -0.293,6.133c-0.195,2.133 -0.489,4.267 -0.88,6.4l-26.4,0c2.151,3.022 3.813,6.311 4.987,9.867c1.173,3.555 1.76,7.644 1.76,12.266c-0,7.289 -1.467,13.867 -4.4,19.734c-2.934,5.866 -7.089,10.889 -12.467,15.066c-5.378,4.178 -11.782,7.378 -19.213,9.6c-7.431,2.223 -15.547,3.334 -24.347,3.334c-8.018,-0 -15.253,-0.8 -21.707,-2.4c-2.737,1.422 -5.426,3.6 -8.066,6.533c-2.64,2.933 -3.96,6.089 -3.96,9.467c-0,3.2 1.271,6 3.813,8.4c2.542,2.4 8.213,3.689 17.013,3.866l39.014,0.534Zm-39.6,21.066c-8.8,-0.177 -15.4,1.956 -19.8,6.4c-4.4,4.445 -6.6,9.778 -6.6,16c-0,3.912 0.88,7.112 2.64,9.6c1.76,2.489 4.253,4.489 7.48,6c3.226,1.512 7.04,2.578 11.44,3.2c4.4,0.623 9.24,0.934 14.52,0.934c15.644,-0 27.866,-2.356 36.666,-7.067c8.8,-4.711 13.2,-10.622 13.2,-17.733c0,-5.334 -1.857,-9.422 -5.573,-12.267c-3.715,-2.844 -10.56,-4.355 -20.533,-4.533l-33.44,-0.534Zm13.493,-66.666c10.56,-0 18.382,-2.667 23.467,-8c5.084,-5.334 7.626,-12.178 7.626,-20.534c0,-8.533 -2.542,-15.511 -7.626,-20.933c-5.085,-5.422 -12.907,-8.133 -23.467,-8.133c-10.56,-0 -18.333,2.711 -23.32,8.133c-4.987,5.422 -7.48,12.4 -7.48,20.933c0,8.356 2.493,15.2 7.48,20.534c4.987,5.333 12.76,8 23.32,8Z" style="fill:#1c1c1c;fill-rule:nonzero;"/><path d="M2251.68,234.367c2.151,-0.356 4.253,-0.622 6.306,-0.8c2.054,-0.178 4.156,-0.267 6.307,-0.267c2.151,0 4.156,0.089 6.013,0.267c1.858,0.178 3.863,0.444 6.014,0.8c0.586,2.666 1.173,6.266 1.76,10.8c0.586,4.533 0.88,8.311 0.88,11.333c1.955,-3.022 4.449,-6.044 7.48,-9.067c3.031,-3.022 6.502,-5.733 10.413,-8.133c3.911,-2.4 8.409,-4.355 13.493,-5.867c5.085,-1.511 10.658,-2.266 16.72,-2.266c17.209,-0 29.92,4.489 38.134,13.466c8.213,8.978 12.32,22.267 12.32,39.867l-0,86.667c-2.151,0.355 -4.596,0.622 -7.334,0.8c-2.737,0.178 -5.182,0.266 -7.333,0.266c-2.151,0 -4.547,-0.088 -7.187,-0.266c-2.64,-0.178 -5.035,-0.445 -7.186,-0.8l-0,-79.467c-0,-12.622 -2.151,-21.911 -6.454,-27.867c-4.302,-5.955 -11.146,-8.933 -20.533,-8.933c-5.475,0 -10.658,0.889 -15.547,2.667c-4.888,1.778 -9.191,4.533 -12.906,8.266c-3.716,3.734 -6.698,8.578 -8.947,14.534c-2.249,5.955 -3.373,13.111 -3.373,21.466l-0,69.334c-2.151,0.355 -4.547,0.622 -7.187,0.8c-2.64,0.178 -5.035,0.266 -7.187,0.266c-2.151,0 -4.595,-0.088 -7.333,-0.266c-2.738,-0.178 -5.182,-0.445 -7.333,-0.8l-0,-136.8Z" style="fill:#1c1c1c;fill-rule:nonzero;"/><path d="M314.582,457.354l-36.96,-0c-0.391,-1.778 -0.684,-3.734 -0.88,-5.867c-0.195,-2.133 -0.293,-4.178 -0.293,-6.133c-0,-1.956 0.098,-3.956 0.293,-6c0.196,-2.045 0.489,-3.956 0.88,-5.734l66.88,0l0,138.4c0,10.667 -1.271,19.645 -3.813,26.934c-2.542,7.289 -6.258,13.111 -11.147,17.466c-4.889,4.356 -10.853,7.467 -17.893,9.334c-7.04,1.866 -14.96,2.8 -23.76,2.8c-4.693,-0 -9.387,-0.311 -14.08,-0.934c-4.693,-0.622 -8.996,-1.377 -12.907,-2.266c0,-3.556 0.391,-7.289 1.174,-11.2c0.782,-3.911 1.955,-7.911 3.52,-12c2.346,0.533 5.035,1.111 8.066,1.733c3.031,0.622 6.209,0.933 9.534,0.933c3.52,0 7.089,-0.266 10.706,-0.8c3.618,-0.533 6.991,-1.689 10.12,-3.466c3.129,-1.778 5.671,-4.445 7.627,-8c1.956,-3.556 2.933,-8.356 2.933,-14.4l0,-120.8Z" style="fill:#1c1c1c;fill-rule:nonzero;"/><path d="M399.356,563.487c0.391,14.933 4.644,25.867 12.76,32.8c8.115,6.933 20.093,10.4 35.933,10.4c13.884,0 27.084,-2.222 39.6,-6.667c1.564,2.667 2.836,5.911 3.813,9.734c0.978,3.822 1.565,7.6 1.76,11.333c-6.453,2.489 -13.542,4.356 -21.266,5.6c-7.725,1.244 -16.28,1.867 -25.667,1.867c-13.689,-0 -25.422,-1.734 -35.2,-5.2c-9.778,-3.467 -17.844,-8.356 -24.2,-14.667c-6.356,-6.311 -11,-13.778 -13.933,-22.4c-2.934,-8.622 -4.4,-18.089 -4.4,-28.4c-0,-10.133 1.417,-19.6 4.253,-28.4c2.836,-8.8 7.187,-16.444 13.053,-22.933c5.867,-6.489 13.249,-11.645 22.147,-15.467c8.898,-3.822 19.409,-5.733 31.533,-5.733c10.365,-0 19.458,1.6 27.28,4.8c7.823,3.2 14.374,7.6 19.654,13.2c5.28,5.6 9.289,12.266 12.026,20c2.738,7.733 4.107,16.133 4.107,25.2c-0,2.489 -0.098,5.111 -0.293,7.866c-0.196,2.756 -0.391,5.111 -0.587,7.067l-102.373,0Zm74.506,-19.733c0,-4.978 -0.733,-9.734 -2.2,-14.267c-1.466,-4.533 -3.617,-8.489 -6.453,-11.867c-2.836,-3.377 -6.453,-6.089 -10.853,-8.133c-4.4,-2.044 -9.631,-3.067 -15.694,-3.067c-11.929,0 -21.071,3.289 -27.426,9.867c-6.356,6.578 -10.218,15.733 -11.587,27.467l74.213,-0Z" style="fill:#1c1c1c;fill-rule:nonzero;"/><path d="M605.569,561.087c-2.933,-0.356 -6.649,-0.711 -11.147,-1.067c-4.497,-0.355 -8.311,-0.533 -11.44,-0.533c-12.124,0 -21.364,2.044 -27.72,6.133c-6.355,4.089 -9.533,10.311 -9.533,18.667c-0,5.333 1.076,9.511 3.227,12.533c2.151,3.023 4.84,5.334 8.066,6.934c3.227,1.6 6.796,2.577 10.707,2.933c3.911,0.356 7.627,0.533 11.147,0.533c4.497,0 9.142,-0.222 13.933,-0.666c4.791,-0.445 9.044,-1.111 12.76,-2l-0,-43.467Zm-0,-25.867c-0,-10.489 -2.933,-17.777 -8.8,-21.866c-5.867,-4.089 -14.373,-6.134 -25.52,-6.134c-6.844,0 -13.249,0.489 -19.213,1.467c-5.965,0.978 -11.783,2.267 -17.454,3.867c-3.715,-5.867 -5.573,-12.889 -5.573,-21.067c6.649,-1.956 13.982,-3.467 22,-4.533c8.018,-1.067 15.742,-1.6 23.173,-1.6c19.556,-0 34.418,4.044 44.587,12.133c10.169,8.089 15.253,21.022 15.253,38.8l0,85.6c-6.844,1.422 -15.155,2.889 -24.933,4.4c-9.778,1.511 -19.751,2.267 -29.92,2.267c-9.582,-0 -18.236,-0.8 -25.96,-2.4c-7.724,-1.6 -14.276,-4.178 -19.653,-7.734c-5.378,-3.555 -9.534,-8.089 -12.467,-13.6c-2.933,-5.511 -4.4,-12.177 -4.4,-20c-0,-7.644 1.711,-14.355 5.133,-20.133c3.423,-5.778 8.067,-10.578 13.934,-14.4c5.866,-3.822 12.613,-6.667 20.24,-8.533c7.626,-1.867 15.644,-2.8 24.053,-2.8c6.258,-0 11.391,0.133 15.4,0.4c4.009,0.266 7.382,0.577 10.12,0.933l-0,-5.067Z" style="fill:#1c1c1c;fill-rule:nonzero;"/><path d="M663.062,488.554c2.151,-0.356 4.254,-0.623 6.307,-0.8c2.053,-0.178 4.156,-0.267 6.307,-0.267c2.151,0 4.155,0.089 6.013,0.267c1.858,0.177 3.862,0.444 6.013,0.8c0.587,2.666 1.174,6.266 1.76,10.8c0.587,4.533 0.88,8.311 0.88,11.333c1.956,-3.022 4.449,-6.044 7.48,-9.067c3.031,-3.022 6.503,-5.733 10.414,-8.133c3.911,-2.4 8.409,-4.356 13.493,-5.867c5.084,-1.511 10.658,-2.266 16.72,-2.266c17.209,-0 29.92,4.489 38.133,13.466c8.214,8.978 12.32,22.267 12.32,39.867l0,86.667c-2.151,0.355 -4.595,0.622 -7.333,0.8c-2.738,0.177 -5.182,0.266 -7.333,0.266c-2.151,0 -4.547,-0.089 -7.187,-0.266c-2.64,-0.178 -5.036,-0.445 -7.187,-0.8l0,-79.467c0,-12.622 -2.151,-21.911 -6.453,-27.867c-4.302,-5.955 -11.147,-8.933 -20.533,-8.933c-5.476,0 -10.658,0.889 -15.547,2.667c-4.889,1.777 -9.191,4.533 -12.907,8.266c-3.715,3.734 -6.697,8.578 -8.946,14.534c-2.249,5.955 -3.374,13.111 -3.374,21.466l0,69.334c-2.151,0.355 -4.546,0.622 -7.186,0.8c-2.64,0.177 -5.036,0.266 -7.187,0.266c-2.151,0 -4.596,-0.089 -7.333,-0.266c-2.738,-0.178 -5.183,-0.445 -7.334,-0.8l0,-136.8Z" style="fill:#1c1c1c;fill-rule:nonzero;"/><path d="M875.142,433.354c2.934,-0.356 6.405,-0.711 10.414,-1.067c4.009,-0.356 8.213,-0.667 12.613,-0.933c4.4,-0.267 8.8,-0.489 13.2,-0.667c4.4,-0.178 8.653,-0.267 12.76,-0.267c10.756,0 20.973,0.978 30.653,2.934c9.68,1.955 18.187,5.333 25.52,10.133c7.334,4.8 13.151,11.156 17.454,19.067c4.302,7.911 6.453,17.822 6.453,29.733c-0,12.444 -2.298,22.8 -6.893,31.067c-4.596,8.266 -10.658,14.889 -18.187,19.866c-7.529,4.978 -16.084,8.489 -25.667,10.534c-9.582,2.044 -19.36,3.066 -29.333,3.066c-3.716,0 -6.991,-0.044 -9.827,-0.133c-2.835,-0.089 -5.915,-0.311 -9.24,-0.667l0,69.334c-4.693,0.533 -9.68,0.8 -14.96,0.8c-2.346,-0 -4.84,-0.045 -7.48,-0.134c-2.64,-0.089 -5.133,-0.311 -7.48,-0.666l0,-192Zm29.92,98.933c3.129,0.356 5.867,0.622 8.214,0.8c2.346,0.178 5.769,0.267 10.266,0.267c6.063,-0 12.076,-0.578 18.04,-1.734c5.965,-1.155 11.294,-3.244 15.987,-6.266c4.693,-3.023 8.458,-7.156 11.293,-12.4c2.836,-5.245 4.254,-12.045 4.254,-20.4c-0,-7.289 -1.223,-13.423 -3.667,-18.4c-2.444,-4.978 -5.818,-8.978 -10.12,-12c-4.302,-3.023 -9.484,-5.156 -15.547,-6.4c-6.062,-1.245 -12.613,-1.867 -19.653,-1.867c-7.236,0 -13.591,0.267 -19.067,0.8l0,77.6Z" style="fill:#1c1c1c;fill-rule:nonzero;"/><path d="M1024.16,488.554c2.151,-0.356 4.204,-0.623 6.16,-0.8c1.955,-0.178 4.009,-0.267 6.16,-0.267c2.151,0 4.302,0.089 6.453,0.267c2.151,0.177 4.107,0.444 5.867,0.8c0.586,2.666 1.173,6.177 1.76,10.533c0.586,4.356 0.88,8.044 0.88,11.067c4.106,-6.045 9.533,-11.289 16.28,-15.734c6.746,-4.444 15.4,-6.666 25.96,-6.666c1.564,-0 3.177,0.044 4.84,0.133c1.662,0.089 3.08,0.222 4.253,0.4c0.391,1.6 0.684,3.289 0.88,5.067c0.196,1.777 0.293,3.644 0.293,5.6c0,2.133 -0.146,4.355 -0.44,6.666c-0.293,2.311 -0.635,4.534 -1.026,6.667c-1.565,-0.356 -3.178,-0.533 -4.84,-0.533l-3.96,-0c-5.28,-0 -10.316,0.666 -15.107,2c-4.791,1.333 -9.093,3.689 -12.907,7.066c-3.813,3.378 -6.844,8 -9.093,13.867c-2.249,5.867 -3.373,13.422 -3.373,22.667l-0,68c-2.151,0.355 -4.547,0.622 -7.187,0.8c-2.64,0.177 -5.036,0.266 -7.187,0.266c-2.151,0 -4.546,-0.089 -7.186,-0.266c-2.64,-0.178 -5.134,-0.445 -7.48,-0.8l-0,-136.8Z" style="fill:#1c1c1c;fill-rule:nonzero;"/><path d="M1179.62,628.554c-11.733,-0 -22,-1.823 -30.8,-5.467c-8.8,-3.644 -16.133,-8.667 -22,-15.067c-5.866,-6.4 -10.217,-13.955 -13.053,-22.666c-2.836,-8.711 -4.253,-18.134 -4.253,-28.267c-0,-10.133 1.417,-19.556 4.253,-28.267c2.836,-8.711 7.187,-16.266 13.053,-22.666c5.867,-6.4 13.2,-11.467 22,-15.2c8.8,-3.734 19.067,-5.6 30.8,-5.6c11.734,-0 22,1.866 30.8,5.6c8.8,3.733 16.134,8.8 22,15.2c5.867,6.4 10.218,13.955 13.054,22.666c2.835,8.711 4.253,18.134 4.253,28.267c-0,10.133 -1.418,19.556 -4.253,28.267c-2.836,8.711 -7.187,16.266 -13.054,22.666c-5.866,6.4 -13.2,11.423 -22,15.067c-8.8,3.644 -19.066,5.467 -30.8,5.467Zm0,-21.067c13.494,0 23.467,-4.444 29.92,-13.333c6.454,-8.889 9.68,-21.245 9.68,-37.067c0,-15.822 -3.226,-28.133 -9.68,-36.933c-6.453,-8.8 -16.426,-13.2 -29.92,-13.2c-13.493,-0 -23.417,4.4 -29.773,13.2c-6.356,8.8 -9.533,21.111 -9.533,36.933c-0,15.822 3.177,28.178 9.533,37.067c6.356,8.889 16.28,13.333 29.773,13.333Z" style="fill:#1c1c1c;fill-rule:nonzero;"/><path d="M1271.44,488.554c2.151,-0.356 4.595,-0.623 7.333,-0.8c2.738,-0.178 5.084,-0.267 7.04,-0.267c2.151,0 4.596,0.089 7.333,0.267c2.738,0.177 5.183,0.444 7.334,0.8l-0,74.933c-0,8.533 0.88,15.6 2.64,21.2c1.76,5.6 4.4,10 7.92,13.2c3.52,3.2 7.822,5.422 12.906,6.667c5.085,1.244 10.951,1.866 17.6,1.866c9.974,0 18.48,-0.977 25.52,-2.933l0,-114.933c2.151,-0.356 4.547,-0.623 7.187,-0.8c2.64,-0.178 5.036,-0.267 7.187,-0.267c2.151,0 4.546,0.089 7.186,0.267c2.64,0.177 5.036,0.444 7.187,0.8l-0,132.533c-6.844,1.778 -15.009,3.467 -24.493,5.067c-9.485,1.6 -19.311,2.4 -29.48,2.4c-9.583,-0 -18.627,-0.756 -27.134,-2.267c-8.506,-1.511 -15.986,-4.578 -22.44,-9.2c-6.453,-4.622 -11.537,-11.111 -15.253,-19.467c-3.716,-8.355 -5.573,-19.377 -5.573,-33.066l-0,-76Z" style="fill:#1c1c1c;fill-rule:nonzero;"/><path d="M1408.42,488.554c2.738,-0.356 5.574,-0.623 8.507,-0.8c2.933,-0.178 5.573,-0.267 7.92,-0.267c2.542,0 5.329,0.089 8.36,0.267c3.031,0.177 5.622,0.444 7.773,0.8l41.067,112.8l41.36,-112.8c2.151,-0.356 4.596,-0.623 7.333,-0.8c2.738,-0.178 5.378,-0.267 7.92,-0.267c2.151,0 4.596,0.089 7.334,0.267c2.737,0.177 5.475,0.444 8.213,0.8l-58.667,136.8c-2.542,0.355 -5.084,0.622 -7.626,0.8c-2.543,0.177 -4.889,0.266 -7.04,0.266c-2.151,0 -4.449,-0.089 -6.894,-0.266c-2.444,-0.178 -4.84,-0.445 -7.186,-0.8l-58.374,-136.8Z" style="fill:#1c1c1c;fill-rule:nonzero;"/><path d="M1590,563.487c0.391,14.933 4.644,25.867 12.76,32.8c8.115,6.933 20.093,10.4 35.933,10.4c13.884,0 27.084,-2.222 39.6,-6.667c1.564,2.667 2.836,5.911 3.813,9.734c0.978,3.822 1.565,7.6 1.76,11.333c-6.453,2.489 -13.542,4.356 -21.266,5.6c-7.725,1.244 -16.28,1.867 -25.667,1.867c-13.689,-0 -25.422,-1.734 -35.2,-5.2c-9.778,-3.467 -17.844,-8.356 -24.2,-14.667c-6.356,-6.311 -11,-13.778 -13.933,-22.4c-2.934,-8.622 -4.4,-18.089 -4.4,-28.4c-0,-10.133 1.417,-19.6 4.253,-28.4c2.836,-8.8 7.187,-16.444 13.053,-22.933c5.867,-6.489 13.249,-11.645 22.147,-15.467c8.898,-3.822 19.409,-5.733 31.533,-5.733c10.365,-0 19.458,1.6 27.28,4.8c7.823,3.2 14.374,7.6 19.654,13.2c5.28,5.6 9.289,12.266 12.026,20c2.738,7.733 4.107,16.133 4.107,25.2c-0,2.489 -0.098,5.111 -0.293,7.866c-0.196,2.756 -0.391,5.111 -0.587,7.067l-102.373,0Zm74.506,-19.733c0,-4.978 -0.733,-9.734 -2.2,-14.267c-1.466,-4.533 -3.617,-8.489 -6.453,-11.867c-2.836,-3.377 -6.453,-6.089 -10.853,-8.133c-4.4,-2.044 -9.631,-3.067 -15.694,-3.067c-11.929,0 -21.071,3.289 -27.426,9.867c-6.356,6.578 -10.218,15.733 -11.587,27.467l74.213,-0Zm-31.68,-76.8c-2.151,0.355 -4.497,0.622 -7.04,0.8c-2.542,0.177 -5.377,0.266 -8.506,0.266c-2.151,0 -4.351,-0.089 -6.6,-0.266c-2.249,-0.178 -4.547,-0.445 -6.894,-0.8l33.734,-33.867c2.933,-0.356 5.964,-0.622 9.093,-0.8c3.129,-0.178 6.356,-0.267 9.68,-0.267c3.52,0 6.747,0.089 9.68,0.267c2.933,0.178 5.769,0.444 8.507,0.8l-41.654,33.867Z" style="fill:#1c1c1c;fill-rule:nonzero;"/></svg>