<?xml version="1.0" encoding="UTF-8" standalone="no"?>
<!DOCTYPE svg PUBLIC "-//W3C//DTD SVG 1.1//EN" "http://www.w3.org/Graphics/SVG/1.1/DTD/svg11.dtd">
<svg width="100%" height="100%" viewBox="0 0 5834 1145" version="1.1" xmlns="http://www.w3.org/2000/svg" xmlns:xlink="http://www.w3.org/1999/xlink" xml:space="preserve" xmlns:serif="http://www.serif.com/" style="fill-rule:evenodd;clip-rule:evenodd;stroke-linejoin:round;stroke-miterlimit:2;">
    <g transform="matrix(4.16667,0,0,4.16667,0,0)">
        <g transform="matrix(10.1022,0,0,10.1311,-3786.31,-2037.73)">
            <g id="Calque-1" serif:id="Calque 1">
                <g id="g4434">
                    <g id="g3051" transform="matrix(1.25,0,0,-1.25,146.781,953.505)">
                        <g id="g3053">
                            <g id="g3059" transform="matrix(1,0,0,1,196.016,596.374)">
                                <path id="path3061" d="M0,0L0.01,-0.001L0.03,0C1.396,0.001 2.549,-0.485 3.325,-1.35C4.102,-2.211 4.589,-3.4 4.592,-4.742L4.592,-4.761C4.592,-5.261 4.589,-6.132 4.446,-6.7L4.413,-6.826L-5.691,-6.826L-5.677,-6.646L-5.639,-6.191C-5.505,-4.509 -4.749,-3.074 -3.873,-1.922C-2.995,-0.761 -1.615,0.001 0,0M-7.202,-7.423C-7.2,-10.12 -6.431,-12.105 -5.135,-13.431C-3.838,-14.755 -1.974,-15.465 0.376,-15.467L0.38,-15.467C1.917,-15.467 3.176,-15.145 4.163,-14.501C5.033,-13.927 5.636,-13.134 5.897,-11.974L4.808,-11.626C4.62,-12.529 4.255,-13.282 3.647,-13.833C2.893,-14.514 1.85,-14.806 0.572,-14.807L0.543,-14.807C-1.167,-14.808 -2.669,-14.129 -3.705,-12.933C-4.737,-11.746 -5.642,-10.064 -5.642,-8.07L-5.642,-7.482L5.762,-7.482C5.892,-6.781 5.939,-6.071 5.939,-5.48C5.937,-3.462 5.381,-1.971 4.399,-0.973C3.416,0.024 1.958,0.584 -0.02,0.587C-4.237,0.557 -7.163,-2.412 -7.202,-7.423" style="fill:rgb(196,18,45);fill-rule:nonzero;"/>
                            </g>
                        </g>
                    </g>
                    <rect id="path3063" x="375" y="201.94" width="1.51" height="25.194" style="fill:rgb(196,18,45);fill-rule:nonzero;"/>
                    <g id="g3065" transform="matrix(1.25,0,0,-1.25,146.781,953.505)">
                        <g id="g3067">
                            <g id="g3073" transform="matrix(1,0,0,1,218.89,596.997)">
                                <path id="path3075" d="M0,0C-4.916,-0.028 -7.451,-3.248 -7.488,-8.054C-7.459,-12.84 -4.638,-16.119 0.248,-16.143C3.871,-16.107 5.555,-14.726 6.281,-12.054C5.75,-11.881 5.335,-11.758 4.768,-11.583C4.231,-13.548 2.82,-14.977 0.415,-14.977L0.341,-14.977C-1.428,-14.977 -2.902,-14.188 -3.897,-12.926C-4.899,-11.665 -5.439,-9.946 -5.439,-8.054C-5.438,-6.194 -5.015,-4.494 -4.122,-3.229C-3.238,-1.965 -1.853,-1.164 -0.085,-1.164L-0.051,-1.164C2.069,-1.164 3.62,-2.529 4.224,-4.459C4.786,-4.283 5.286,-4.103 5.909,-3.903C5.355,-1.479 3.304,-0.022 0,0" style="fill:rgb(196,18,45);fill-rule:nonzero;"/>
                            </g>
                            <g id="g3077" transform="matrix(1,0,0,1,237.66,597.018)">
                                <path id="path3079" d="M0,0C-3.338,-0.02 -4.934,-1.257 -5.763,-4.615L-6.134,-4.6L-6.836,-0.334L-8.447,-0.334L-8.447,-15.94L-5.519,-15.94L-5.519,-11.281C-5.516,-6.546 -3.847,-2.596 -0.722,-2.563L-0.711,-2.563C0.25,-2.563 1.067,-2.874 1.63,-3.517C2.194,-4.162 2.494,-5.114 2.494,-6.363L2.494,-15.941L5.416,-15.94L5.416,-6.122C5.395,-2.326 3.612,-0.016 0,0" style="fill:rgb(196,18,45);fill-rule:nonzero;"/>
                            </g>
                            <g id="g3081" transform="matrix(1,0,0,1,287.234,596.997)">
                                <path id="path3083" d="M0,0C-2.397,0 -4.135,-1.943 -5.185,-4.545C-6.146,-1.372 -8.578,0 -10.645,0C-13.31,0 -15.224,-1.711 -16.28,-4.489L-16.678,-4.487L-17.514,-0.292L-20.88,-0.292L-20.88,-15.922L-15.343,-15.922L-15.343,-12.031C-15.343,-10.417 -15.284,-5.145 -12.517,-5.145C-12.133,-5.145 -11.072,-5.145 -11.072,-7.327L-11.072,-15.922L-4.698,-15.922L-4.698,-12.031C-4.698,-8.715 -3.922,-5.145 -1.873,-5.145C-1.49,-5.145 -0.429,-5.145 -0.429,-7.327L-0.429,-15.922L5.892,-15.922L5.892,-7.327C5.892,-1.271 2.687,0 0,0" style="fill:rgb(196,18,45);fill-rule:nonzero;"/>
                            </g>
                            <g id="g3085" transform="matrix(1,0,0,1,254.52,596.985)">
                                <path id="path3087" d="M0,0C-4.506,0 -7.089,-1.711 -7.089,-4.694C-7.089,-5.129 -7.034,-5.587 -6.925,-6.061C-6.913,-6.113 -6.881,-6.246 -6.841,-6.371C-6.803,-6.492 -6.759,-6.607 -6.746,-6.638L-2.502,-5.689C-2.502,-5.689 -2.553,-5.545 -2.581,-5.379C-2.616,-5.176 -2.628,-4.94 -2.628,-4.896C-2.628,-3.673 -1.722,-2.944 -0.204,-2.944C1.45,-2.944 2.289,-4.066 2.289,-6.28L2.289,-8.067L2.144,-8.05C1.009,-7.917 -0.065,-7.85 -1.047,-7.85C-5.161,-7.85 -7.427,-9.341 -7.427,-12.049C-7.427,-14.608 -5.635,-16.136 -2.633,-16.136C0.467,-16.136 1.82,-14.382 2.409,-12.911L2.659,-12.949C2.829,-15.101 4.085,-16.103 6.611,-16.103C7.724,-16.103 8.564,-15.825 9.248,-15.23L9.248,-13.44C9.071,-13.488 8.857,-13.529 8.567,-13.529C7.572,-13.529 7.089,-12.979 7.089,-11.846L7.089,-6.82C7.089,-2.231 4.77,0 0,0M-0.911,-13.664C-2.071,-13.664 -2.763,-13.06 -2.763,-12.049C-2.763,-10.62 -1.928,-9.612 2.15,-9.344L2.289,-9.335L2.289,-9.991C2.289,-12.222 1.033,-13.664 -0.911,-13.664" style="fill:rgb(196,18,45);fill-rule:nonzero;"/>
                            </g>
                        </g>
                    </g>
                </g>
            </g>
        </g>
    </g>
</svg>
